<?xml version="1.0" standalone="no"?>
<!DOCTYPE svg PUBLIC "-//W3C//DTD SVG 20010904//EN"
 "http://www.w3.org/TR/2001/REC-SVG-20010904/DTD/svg10.dtd">
<svg version="1.0" xmlns="http://www.w3.org/2000/svg"
 width="1064.000000pt" height="1064.000000pt" viewBox="0 0 1064.000000 1064.000000"
 preserveAspectRatio="xMidYMid meet">
<metadata>
Created by potrace 1.14, written by Peter Selinger 2001-2017
</metadata>
<g transform="translate(0.000000,1064.000000) scale(0.100000,-0.100000)"
fill="#000000" stroke="none">
<path d="M3589 10556 c-2 -2 -28 -7 -57 -10 -197 -23 -416 -118 -568 -245 -39
-32 -57 -47 -114 -91 -25 -19 -47 -38 -50 -41 -3 -3 -97 -79 -210 -169 -113
-90 -207 -166 -210 -169 -3 -4 -129 -105 -280 -226 -151 -121 -284 -227 -295
-236 -11 -9 -45 -37 -75 -61 -30 -24 -181 -145 -335 -269 -154 -124 -442 -355
-640 -514 -489 -392 -518 -417 -581 -494 -63 -75 -125 -196 -150 -291 -17 -61
-18 -279 -19 -3465 l-1 -3400 23 -87 c61 -237 230 -428 484 -549 90 -43 218
-84 292 -94 18 -3 43 -8 57 -11 14 -4 855 -8 1870 -10 1728 -2 1850 -3 1920
-20 71 -17 215 -18 2522 -19 1346 -1 2475 2 2510 6 247 33 479 143 648 309
136 134 225 284 273 462 l22 83 0 3330 0 3330 -22 83 c-59 218 -169 379 -393
572 -35 30 -68 60 -74 66 -6 5 -36 32 -66 60 -48 42 -199 177 -234 209 -77 69
-124 111 -191 170 -71 63 -233 208 -340 304 -22 20 -78 70 -125 111 -47 41
-87 77 -90 80 -3 3 -50 45 -105 94 -55 49 -118 105 -140 126 -47 43 -122 110
-225 200 -41 36 -84 74 -95 85 -12 11 -39 36 -61 55 -105 93 -200 177 -224
200 -14 14 -57 52 -95 85 -38 33 -76 67 -85 75 -149 143 -302 241 -462 294
-75 25 -81 27 -208 51 -104 20 -327 13 -445 -13 -205 -46 -373 -133 -540 -283
-38 -34 -101 -89 -139 -123 -38 -34 -74 -66 -80 -72 -6 -5 -78 -70 -161 -144
-82 -74 -155 -139 -161 -144 -6 -6 -42 -38 -79 -71 -38 -33 -91 -81 -119 -106
-28 -25 -70 -62 -92 -82 l-41 -37 -339 273 c-421 338 -454 364 -479 385 -11 9
-40 32 -65 51 -25 19 -47 37 -50 40 -10 12 -185 148 -230 178 -111 75 -274
137 -440 168 -41 8 -334 17 -341 11z m3716 -441 c129 -15 297 -85 375 -157 14
-13 126 -113 250 -222 124 -110 250 -223 280 -250 30 -28 80 -73 110 -99 30
-27 89 -79 130 -116 41 -38 161 -144 265 -237 105 -93 195 -173 201 -179 6 -5
46 -41 90 -80 43 -38 85 -77 94 -85 9 -8 34 -30 55 -49 22 -19 65 -57 96 -85
52 -48 177 -160 223 -199 12 -10 55 -49 96 -86 63 -57 222 -199 404 -361 135
-119 196 -211 226 -340 11 -45 13 -671 13 -3290 0 -1779 -3 -3254 -7 -3277 -4
-23 -18 -70 -32 -104 -69 -169 -207 -291 -408 -362 l-91 -32 -1204 -3 -1204
-3 25 33 c70 92 124 226 135 332 4 33 7 298 7 587 l1 526 350 0 c192 0 372 3
399 7 218 31 399 184 455 386 27 96 22 251 -9 335 -71 187 -245 324 -445 351
-27 4 -208 7 -400 7 l-350 0 0 541 0 541 375 1 c408 0 441 4 552 60 53 26 127
81 161 119 38 42 89 129 109 183 26 74 32 228 12 314 -45 191 -217 351 -420
392 -50 11 -159 14 -404 14 -184 1 -346 1 -360 1 l-25 1 -1 1218 c-1 1364 4
1278 -75 1436 -62 126 -138 209 -332 364 -94 75 -177 141 -183 147 -18 16
-127 104 -269 217 -71 56 -135 107 -141 113 -6 5 -137 111 -291 234 l-279 225
90 80 c50 45 93 83 96 87 3 3 52 47 110 98 58 52 121 108 140 125 19 17 100
89 180 161 80 71 154 138 165 148 147 140 305 217 475 233 36 4 66 8 68 9 3 2
24 1 117 -10z m-1596 -3718 c197 -52 356 -215 388 -395 12 -73 5 -205 -15
-264 -47 -140 -146 -249 -282 -313 -98 -46 -147 -50 -593 -50 -312 1 -436 5
-477 14 -58 14 -182 71 -206 95 -8 8 -24 23 -37 33 -31 25 -91 101 -112 142
-56 112 -68 301 -26 413 67 175 222 300 414 332 43 8 211 11 475 10 347 0 416
-3 471 -17z m-3077 -42 c202 -51 355 -205 393 -394 9 -43 6 -188 -5 -237 -28
-123 -136 -259 -258 -323 -125 -65 -133 -66 -637 -66 -388 0 -436 2 -490 19
-187 57 -323 192 -370 368 -18 64 -12 240 9 297 52 141 147 242 292 308 93 42
171 48 603 46 331 -1 410 -4 463 -18z m-107 -2279 c275 -34 470 -250 466 -516
-3 -203 -108 -372 -287 -459 -115 -56 -137 -58 -619 -56 -485 1 -478 0 -604
66 -211 110 -316 351 -256 584 23 88 53 142 116 210 96 102 216 160 358 173
93 9 757 7 826 -2z m3113 0 c224 -24 417 -197 457 -409 50 -266 -87 -501 -347
-595 l-73 -26 -445 -2 c-411 -1 -450 0 -515 18 -153 42 -275 139 -340 270 -42
87 -46 100 -50 204 -6 164 37 278 146 385 100 98 202 145 339 156 41 3 76 6
77 7 6 5 701 -3 751 -8z m-3040 -2095 c139 -40 281 -149 336 -258 72 -143 76
-327 10 -468 -55 -119 -182 -227 -314 -268 -91 -28 -120 -30 -530 -29 -429 0
-484 5 -585 52 -203 94 -309 264 -304 485 7 255 186 452 454 498 11 2 216 3
455 2 317 -1 447 -4 478 -14z m3150 -13 c260 -94 400 -336 346 -598 -45 -216
-236 -384 -463 -407 -82 -8 -777 -7 -845 1 -132 17 -255 81 -340 178 -206 235
-148 612 118 772 57 34 155 71 206 78 14 2 223 3 465 3 l440 -1 73 -26z"/>
</g>
</svg>
